<svg xmlns="http://www.w3.org/2000/svg" width="12" height="14" viewBox="0 0 12 14">
  <path fill="#4A4A4A" fill-rule="nonzero" d="M2.9 9.886c0 .33.22.55.55.55H4v1.925c0 .44.385.825.825.825.44 0 .825-.385.825-.825v-1.925h1.1v1.925c0 .44.385.825.825.825.44 0 .825-.385.825-.825v-1.925h.55c.33 0 .55-.22.55-.55v-5.5H2.9v5.5zm-1.375-5.5a.846.846 0 0 0-.825.825v3.85c0 .44.385.825.825.825.44 0 .825-.385.825-.825v-3.85a.846.846 0 0 0-.825-.825zm9.35 0a.846.846 0 0 0-.825.825v3.85c0 .44.385.825.825.825.44 0 .825-.385.825-.825v-3.85a.846.846 0 0 0-.825-.825zm-2.75-3.19L8.84.481a.266.266 0 0 0 0-.385.266.266 0 0 0-.385 0L7.63.921C7.245.646 6.75.536 6.2.536c-.55 0-1.045.11-1.485.33l-.77-.825a.607.607 0 0 0-.44 0 .607.607 0 0 0 0 .44l.715.715c-.77.605-1.32 1.54-1.32 2.64h6.6c0-1.1-.55-2.09-1.375-2.64zM5.1 2.736h-.55v-.55h.55v.55zm2.75 0H7.3v-.55h.55v.55z" opacity=".6"/>
</svg>