<svg xmlns="http://www.w3.org/2000/svg" width="10" height="13" viewBox="0 0 10 13">
    <path fill="#4A4A4A" fill-rule="nonzero" d="M6.562 1.964c.378-.51.664-1.23.56-1.964-.617.045-1.34.457-1.76.995-.385.488-.7 1.213-.577 1.916.675.022 1.372-.4 1.777-.947zM9.9 8.878c-.27.629-.4.91-.749 1.467-.485.777-1.17 1.746-2.02 1.753-.754.008-.948-.516-1.972-.51-1.023.006-1.237.52-1.992.512-.849-.008-1.498-.882-1.983-1.66C-.176 8.269-.318 5.718.52 4.36c.596-.963 1.536-1.526 2.42-1.526.899 0 1.464.518 2.209.518.722 0 1.161-.52 2.201-.52.787 0 1.621.45 2.215 1.228-1.946 1.12-1.63 4.037.335 4.818z" opacity=".6"/>
</svg>