<svg xmlns="http://www.w3.org/2000/svg" width="18" height="19" viewBox="0 0 18 19">
    <path fill="#4A4A4A" fill-rule="nonzero" d="M6.203.784a6.04 6.04 0 1 1 0 12.078 6.04 6.04 0 0 1 0-12.078zM4.941 7.57a2.012 2.012 0 1 0 0-4.023 2.012 2.012 0 0 0 0 4.023zm12.488 7.914c.185.177.283 1.952-.181 2.397-.464.443-2.32.35-2.505.173l-.302-.29h-1.214a.425.425 0 0 1-.433-.415v-1.14h-1.192a.425.425 0 0 1-.433-.414v-1.14H9.977a.425.425 0 0 1-.433-.415v-.72a5.098 5.098 0 0 0 1.839-1.064l4.19 4.01a.491.491 0 0 0 .671 0 .441.441 0 0 0 0-.642l-4.235-4.053c.22-.292.41-.605.558-.94l4.862 4.653z"/>
</svg>