<svg xmlns="http://www.w3.org/2000/svg" width="20" height="23" viewBox="0 0 20 23">
    <path fill="#4A4A4A" fill-rule="nonzero" d="M16.575 5.215h-6.001c-1.818 0-3.304 1.506-3.304 3.347v2.468c0 .622.17 1.205.465 1.706-.219.482-.597 1.085-1.204 1.387-.197.098-.152.397.066.431.646.102 1.57.076 2.436-.567.46.248.985.39 1.54.39h6.001c1.817 0 3.304-1.507 3.304-3.347V8.562c0-1.84-1.487-3.347-3.303-3.347zm-5.738 1.537c-.91.493-1.566 1.216-1.977 1.776-.156.212-.488.064-.436-.195.312-1.585 1.422-1.985 2.28-2.046.261-.019.364.339.133.465zm1.187 12.19c0 .37-.3.675-.666.675H2.081a.673.673 0 0 1-.666-.675V4.058c0-.37.3-.675.666-.675h9.277c.367 0 .666.304.666.675v.468h1.294V3.284c0-1.794-1.45-3.261-3.22-3.261H3.341C1.571.023.121 1.49.121 3.284v16.432c0 1.794 1.45 3.261 3.22 3.261h6.757c1.77 0 3.22-1.467 3.22-3.261v-4.381h-1.294v3.607zM6.72 22.347c-.573 0-1.038-.47-1.038-1.05 0-.581.465-1.052 1.038-1.052s1.037.47 1.037 1.051c0 .58-.464 1.051-1.037 1.051z"/>
</svg>