<svg width="14" height="15" viewBox="0 0 14 15" fill="none" xmlns="http://www.w3.org/2000/svg">
<path d="M6.99998 14.1666C10.6819 14.1666 13.6666 11.1819 13.6666 7.49998C13.6666 3.81808 10.6819 0.833313 6.99998 0.833313C3.31808 0.833313 0.333313 3.81808 0.333313 7.49998C0.333313 11.1819 3.31808 14.1666 6.99998 14.1666Z" fill="#FFB900"/>
<path d="M5.06018 5.49997C5.21692 5.05441 5.52628 4.67871 5.93348 4.43939C6.34069 4.20007 6.81944 4.11259 7.28497 4.19244C7.75049 4.27229 8.17273 4.51432 8.4769 4.87565C8.78107 5.23699 8.94755 5.69432 8.94685 6.16663C8.94685 7.49997 6.94685 8.16663 6.94685 8.16663" stroke="white" stroke-width="1.51994" stroke-linecap="round" stroke-linejoin="round"/>
<path d="M7.00006 10.8333H7.008" stroke="white" stroke-width="1.51994" stroke-linecap="round" stroke-linejoin="round"/>
</svg>
